<svg width="100" height="22" viewBox="0 0 100 22" xmlns="http://www.w3.org/2000/svg">
<path d="M95.5684 18.1298C94.5964 18.1298 93.7587 17.9245 93.0553 17.5138C92.3582 17.1032 91.8211 16.5128 91.4438 15.7428C91.0729 14.9728 90.8875 14.0488 90.8875 12.9708C90.8875 11.9249 91.0761 11.017 91.4534 10.247C91.8371 9.47695 92.3774 8.88341 93.0744 8.46632C93.7779 8.04282 94.6092 7.83107 95.5684 7.83107C96.3997 7.83107 97.1479 8.00112 97.8129 8.3412C98.4844 8.67487 99.0151 9.1882 99.4052 9.8812C99.8017 10.5678 99.9999 11.4372 99.9999 12.4896C99.9999 12.6692 99.9967 12.8938 99.9903 13.1633C99.9839 13.4264 99.9615 13.6895 99.9232 13.9526H93.6883C93.6883 14.3055 93.7651 14.6135 93.9185 14.8766C94.072 15.1332 94.2894 15.3322 94.5708 15.4733C94.8522 15.6145 95.1847 15.6851 95.5684 15.6851C96.0672 15.6851 96.4828 15.6049 96.8153 15.4445C97.1543 15.284 97.4804 15.0177 97.7937 14.6456L99.4436 16.3011C98.9832 16.8593 98.4364 17.3053 97.8033 17.6389C97.1703 17.9662 96.4253 18.1298 95.5684 18.1298ZM93.7267 11.7966H97.2566C97.2054 11.4565 97.1063 11.1742 96.9592 10.9496C96.8122 10.725 96.6171 10.5582 96.3741 10.4491C96.1311 10.3336 95.837 10.2758 95.4916 10.2758C95.0248 10.2758 94.6315 10.4106 94.3118 10.6801C93.9921 10.9496 93.797 11.3217 93.7267 11.7966Z" fill="currentColor"/>
<path d="M83.5361 17.8988V8.06207H86.4138V8.96682C86.5608 8.66524 86.823 8.40216 87.2003 8.17758C87.5776 7.94658 87.9421 7.83107 88.2938 7.83107C89.0548 7.83107 89.6942 8.11982 90.2122 8.69732L89.8285 11.3153C89.5344 11.0522 89.253 10.8694 88.9844 10.7667C88.7222 10.6576 88.4281 10.6031 88.102 10.6031C87.7375 10.6031 87.4305 10.6801 87.1811 10.8341C86.9317 10.9881 86.7399 11.2159 86.6056 11.5174C86.4777 11.819 86.4138 12.188 86.4138 12.6243V17.8988H83.5361Z" fill="currentColor"/>
<path d="M76.8682 18.1298C75.4613 18.1298 74.3519 17.6742 73.5397 16.7631C72.7276 15.8455 72.3215 14.5878 72.3215 12.9901C72.3215 11.9377 72.507 11.0266 72.8779 10.2566C73.2488 9.48016 73.7731 8.88341 74.451 8.46632C75.1352 8.04282 75.9409 7.83107 76.8682 7.83107C77.789 7.83107 78.5852 8.04282 79.2566 8.46632C79.9344 8.88341 80.4556 9.47695 80.8201 10.247C81.191 11.017 81.3764 11.9313 81.3764 12.9901C81.3764 14.0552 81.1942 14.9728 80.8297 15.7428C80.4716 16.5064 79.9536 17.0967 79.2758 17.5138C78.6043 17.9245 77.8018 18.1298 76.8682 18.1298ZM76.8682 15.3386C77.3989 15.3386 77.805 15.1364 78.0864 14.7322C78.3741 14.3215 78.518 13.7408 78.518 12.9901C78.518 12.2393 78.3709 11.6586 78.0768 11.2479C77.789 10.8309 77.3861 10.6223 76.8682 10.6223C76.3502 10.6223 75.9409 10.8341 75.6404 11.2576C75.3462 11.6811 75.1992 12.2586 75.1992 12.9901C75.1992 13.7216 75.3462 14.2959 75.6404 14.7129C75.9409 15.13 76.3502 15.3386 76.8682 15.3386Z" fill="currentColor"/>
<path d="M66.1915 18.1298C65.2451 18.1298 64.4266 17.9213 63.7359 17.5042C63.0453 17.0871 62.5113 16.4936 62.134 15.7236C61.7568 14.9536 61.5681 14.0424 61.5681 12.9901C61.5681 11.9442 61.7568 11.0362 62.134 10.2662C62.5177 9.48978 63.0549 8.88982 63.7455 8.46632C64.4425 8.04282 65.2579 7.83107 66.1915 7.83107C67.317 7.83107 68.2442 8.09416 68.9732 8.62032C69.7086 9.14649 70.2393 9.92932 70.5655 10.9688L67.8221 11.8736C67.6687 11.4693 67.4544 11.1581 67.1795 10.9399C66.9045 10.7154 66.588 10.6031 66.2299 10.6031C65.7247 10.6031 65.3058 10.8277 64.9733 11.2768C64.6472 11.726 64.4841 12.2971 64.4841 12.9901C64.4841 13.6831 64.644 14.2509 64.9637 14.6937C65.2834 15.1364 65.6927 15.3578 66.1915 15.3578C66.5752 15.3578 66.9045 15.2423 67.1795 15.0113C67.4544 14.7739 67.6687 14.421 67.8221 13.9526L70.5655 14.7418C70.2393 15.8776 69.7118 16.7278 68.9828 17.2924C68.2538 17.8507 67.3234 18.1298 66.1915 18.1298Z" fill="currentColor"/>
<path d="M55.4302 18.1296C55.0082 18.1296 54.6597 18.0526 54.3847 17.8986C54.1097 17.7446 53.8763 17.4943 53.6845 17.1478V17.8986H50.8069V5.28982L53.6845 4.00007V8.77407C53.8955 8.46607 54.1609 8.23186 54.4806 8.07144C54.8067 7.91103 55.1808 7.83082 55.6029 7.83082C56.3958 7.83082 57.0961 8.05219 57.7036 8.49494C58.3174 8.93128 58.797 9.53765 59.1424 10.3141C59.4941 11.0841 59.6699 11.9696 59.6699 12.9706C59.6699 14.5876 59.2926 15.8517 58.5381 16.7628C57.7899 17.674 56.7539 18.1296 55.4302 18.1296ZM55.1041 15.3383C55.6413 15.3383 56.0569 15.133 56.3511 14.7223C56.6452 14.3117 56.7923 13.7277 56.7923 12.9706C56.7923 12.2198 56.6452 11.6423 56.3511 11.2381C56.0569 10.8274 55.6413 10.6221 55.1041 10.6221C54.7972 10.6221 54.519 10.6734 54.2696 10.7761C54.0266 10.8723 53.8316 11.0135 53.6845 11.1996V14.7801C53.8507 14.979 54.0362 15.1234 54.2408 15.2132C54.4518 15.2966 54.7396 15.3383 55.1041 15.3383Z" fill="currentColor"/>
<path d="M44.0674 18.1298C43.0954 18.1298 42.2577 17.9245 41.5543 17.5138C40.8573 17.1032 40.3201 16.5128 39.9428 15.7428C39.5719 14.9728 39.3865 14.0488 39.3865 12.9708C39.3865 11.9249 39.5751 11.017 39.9524 10.247C40.3361 9.47695 40.8764 8.88341 41.5735 8.46632C42.2769 8.04282 43.1082 7.83107 44.0674 7.83107C44.8987 7.83107 45.6469 8.00112 46.3119 8.3412C46.9834 8.67487 47.5142 9.1882 47.9042 9.8812C48.3007 10.5678 48.4989 11.4372 48.4989 12.4896C48.4989 12.6692 48.4957 12.8938 48.4893 13.1633C48.483 13.4264 48.4606 13.6895 48.4222 13.9526H42.1874C42.1874 14.3055 42.2641 14.6135 42.4176 14.8766C42.571 15.1332 42.7885 15.3322 43.0698 15.4733C43.3512 15.6145 43.6837 15.6851 44.0674 15.6851C44.5662 15.6851 44.9818 15.6049 45.3144 15.4445C45.6533 15.284 45.9794 15.0177 46.2928 14.6456L47.9426 16.3011C47.4822 16.8593 46.9354 17.3053 46.3024 17.6389C45.6693 17.9662 44.9243 18.1298 44.0674 18.1298ZM42.2257 11.7966H45.7556C45.7044 11.4565 45.6053 11.1742 45.4583 10.9496C45.3112 10.725 45.1161 10.5582 44.8731 10.4491C44.6301 10.3336 44.336 10.2758 43.9907 10.2758C43.5239 10.2758 43.1306 10.4106 42.8108 10.6801C42.4911 10.9496 42.2961 11.3217 42.2257 11.7966Z" fill="currentColor"/>
<path d="M26.6293 17.8989L23.7517 4.42391H26.8787L28.2024 11.2192C28.2344 11.3603 28.2568 11.4887 28.2696 11.6042C28.2824 11.7132 28.2983 11.8608 28.3175 12.0469C28.3367 11.8801 28.3559 11.7325 28.3751 11.6042C28.3943 11.4694 28.4198 11.3347 28.4518 11.1999L30.0441 4.42391H32.7107L34.3222 11.1903C34.3541 11.3058 34.3797 11.4405 34.3989 11.5945C34.4181 11.7485 34.4373 11.9122 34.4565 12.0854C34.482 11.925 34.5044 11.7774 34.5236 11.6427C34.5492 11.5079 34.5716 11.3924 34.5907 11.2962L35.9144 4.42391H39.0415L36.1447 17.8989H33.267L31.4445 10.5647C31.4254 10.4877 31.4094 10.401 31.3966 10.3048C31.3838 10.2085 31.3678 10.0706 31.3486 9.89091C31.3294 10.0834 31.3103 10.2246 31.2911 10.3144C31.2783 10.3978 31.2655 10.4748 31.2527 10.5454L29.5069 17.8989H26.6293Z" fill="currentColor"/>
<path fill-rule="evenodd" clip-rule="evenodd" d="M9.01288 18.8658C9.01288 19.7233 8.05735 20.254 7.30401 19.815L1.43755 16.3957C1.09557 16.1964 0.886077 15.8358 0.886077 15.4465L0.886077 8.49491C0.886077 7.6374 1.84161 7.10667 2.59494 7.54575L6.12527 9.60339C6.58479 9.87122 6.76499 10.4205 6.75403 10.9435C6.74369 11.4368 6.86262 11.9391 7.12485 12.3976C7.37864 12.8414 7.73477 13.1883 8.14577 13.4256C8.6118 13.6946 9.01288 14.1296 9.01288 14.6588V18.8658ZM16.2331 4.72218C16.9684 5.15075 16.9684 6.19194 16.2331 6.62051L12.5601 8.76131C12.067 9.0487 11.4415 8.90269 10.954 8.60627C10.1188 8.09837 9.04255 8.05207 8.13837 8.57907C8.11937 8.59014 8.10055 8.60141 8.08191 8.61286C7.59405 8.9127 6.96553 9.06024 6.47056 8.77175L2.86534 6.67045C2.13003 6.24188 2.13004 5.20069 2.86534 4.77212L9.01337 1.18875C9.3699 0.980948 9.81423 0.980947 10.1708 1.18875L16.2331 4.72218ZM0.551477 16.9121C0.209491 16.7128 0 16.3523 0 15.963V6.03702C0 5.64774 0.20949 5.28718 0.551476 5.08785L9.01337 0.155851C9.3699 -0.05195 9.81423 -0.0519504 10.1708 0.15585L18.6327 5.08785C18.9746 5.28718 19.1841 5.64774 19.1841 6.03702V15.963C19.1841 16.3523 18.9746 16.7128 18.6327 16.9121L10.1708 21.8442C9.81423 22.052 9.3699 22.052 9.01337 21.8442L0.551477 16.9121ZM11.1535 10.0495C10.6336 9.14034 9.48199 8.82884 8.58141 9.35374C7.68082 9.87865 7.37226 11.0412 7.89221 11.9503C8.41216 12.8595 9.56374 13.171 10.4643 12.6461C11.3649 12.1212 11.6735 10.9587 11.1535 10.0495Z" fill="currentColor"/>
</svg>
