<svg width="24" height="24" viewBox="0 0 24 24" fill="none" xmlns="http://www.w3.org/2000/svg">
<path d="M15 12C15 11.2044 14.6839 10.4413 14.1213 9.87868C13.5587 9.31607 12.7956 9 12 9C11.2044 9 10.4413 9.31607 9.87868 9.87868C9.31607 10.4413 9 11.2044 9 12C9 12.7956 9.31607 13.5587 9.87868 14.1213C10.4413 14.6839 11.2044 15 12 15C12.7956 15 13.5587 14.6839 14.1213 14.1213C14.6839 13.5587 15 12.7956 15 12Z" stroke="currentColor" stroke-width="1.5" stroke-linecap="round" stroke-linejoin="round"/>
<path d="M9.50023 3.31012C9.50023 5.06399 7.24773 6.4072 5.65773 5.50032C2.81898 4.00556 0.662724 8.12196 3.17023 9.77316C4.70023 10.6458 4.70148 13.2931 3.17023 14.167C0.466474 15.7693 2.93398 19.8625 5.65773 18.4276C7.38148 17.445 9.50148 19.0534 9.50148 20.8183C9.50148 23.765 14.4765 23.6892 14.4765 20.8183C14.4765 19.0204 16.564 17.4266 18.319 18.4276C21.119 19.9028 23.529 15.6019 20.8065 14.167C19.274 13.2931 19.2752 10.6348 20.8065 9.76216C23.5102 8.15985 21.044 4.06667 18.319 5.50032C16.7652 6.38764 14.4777 5.05666 14.4765 3.31012C14.4765 0.181266 9.50148 0.279042 9.50148 3.31012" stroke="currentColor" stroke-width="1.5" stroke-linecap="round" stroke-linejoin="round"/>
</svg>
