<svg width="24" height="24" viewBox="0 0 24 24" fill="none" xmlns="http://www.w3.org/2000/svg">
<path d="M12 6.65522V13.3774M12 17.3448V16.7337M6.87278 1.57322C7.30667 1.14056 7.66233 1 8.25633 1H15.7437C16.3377 1 16.6946 1.14056 17.1272 1.57322L22.4268 6.87278C22.8594 7.30544 23 7.66233 23 8.25633V15.7437C23 16.3548 22.8472 16.7068 22.4268 17.1272L17.1272 22.4268C16.6946 22.8594 16.3377 23 15.7437 23H8.25633C7.64522 23 7.29322 22.8472 6.87278 22.4268L1.57444 17.1272C1.14056 16.6933 1 16.3377 1 15.7437V8.25633C1 7.64522 1.15278 7.29322 1.57322 6.87278L6.87278 1.57322Z" stroke="currentColor" stroke-width="1.5" stroke-linecap="round" stroke-linejoin="round"/>
</svg>
