<svg width="24" height="24" viewBox="0 0 24 24" xmlns="http://www.w3.org/2000/svg">
<path fill-rule="evenodd" clip-rule="evenodd" d="M7.48872 2.15394C7.48856 2.1541 7.48888 2.15378 7.48872 2.15394L2.15302 7.48964C1.99269 7.64997 1.93416 7.74684 1.9045 7.81776C1.87504 7.88818 1.84615 7.99973 1.84615 8.23015V15.7698C1.84615 15.9963 1.8732 16.1054 1.90221 16.1759C1.93113 16.2463 1.9898 16.3459 2.15425 16.5104L7.48964 21.847C7.48966 21.847 7.48961 21.847 7.48964 21.847C7.64992 22.0073 7.74685 22.0658 7.81776 22.0955C7.88818 22.125 7.99973 22.1538 8.23015 22.1538H15.7698C15.9964 22.1538 16.1061 22.1268 16.1771 22.0976C16.2477 22.0687 16.3471 22.0102 16.5104 21.847L21.847 16.5104C22.0073 16.35 22.0658 16.2532 22.0955 16.1822C22.125 16.1118 22.1538 16.0003 22.1538 15.7698V8.23015C22.1538 8.00362 22.1268 7.89393 22.0976 7.82287C22.0687 7.75228 22.0102 7.65286 21.847 7.48964L16.5104 2.15302C16.3471 1.9898 16.2477 1.9313 16.1771 1.90235C16.1061 1.87321 15.9964 1.84615 15.7698 1.84615H8.23015C8.0037 1.84615 7.89439 1.87319 7.82354 1.90227C7.75298 1.93123 7.65289 1.99031 7.48872 2.15394ZM7.12261 0.194349C7.48962 0.0437307 7.85846 0 8.23015 0H15.7698C16.1415 0 16.5105 0.0437121 16.8776 0.194263C17.2452 0.345007 17.5433 0.575125 17.8158 0.847594L23.1524 6.18421C23.4249 6.45668 23.655 6.75479 23.8057 7.12236C23.9563 7.48946 24 7.85853 24 8.23015V15.7698C24 16.1548 23.952 16.5282 23.7987 16.8947C23.6455 17.2607 23.4155 17.5527 23.1524 17.8158L17.8158 23.1524C17.5433 23.4249 17.2452 23.655 16.8776 23.8057C16.5105 23.9563 16.1415 24 15.7698 24H8.23015C7.84519 24 7.47182 23.952 7.10532 23.7987C6.73932 23.6455 6.44726 23.4155 6.18421 23.1524L0.848825 17.8158C0.8488 17.8158 0.84885 17.8158 0.848825 17.8158C0.576388 17.5433 0.345783 17.2454 0.194714 16.8779C0.0437194 16.5106 0 16.1415 0 15.7698V8.23015C0 7.84519 0.0480391 7.47182 0.20135 7.10532C0.354452 6.73932 0.58454 6.44726 0.847594 6.18421L6.18513 0.846674C6.45759 0.574982 6.7554 0.345054 7.12261 0.194349ZM12 5.69477C12.5098 5.69477 12.9231 6.10804 12.9231 6.61785V13.3871C12.9231 13.8969 12.5098 14.3102 12 14.3102C11.4902 14.3102 11.0769 13.8969 11.0769 13.3871V6.61785C11.0769 6.10804 11.4902 5.69477 12 5.69477ZM12 15.8437C12.5098 15.8437 12.9231 16.257 12.9231 16.7668V17.3822C12.9231 17.892 12.5098 18.3052 12 18.3052C11.4902 18.3052 11.0769 17.892 11.0769 17.3822V16.7668C11.0769 16.257 11.4902 15.8437 12 15.8437Z" fill="currentColor"/>
</svg>
