<svg width="24" height="24" viewBox="0 0 24 24" xmlns="http://www.w3.org/2000/svg">
<path fill-rule="evenodd" clip-rule="evenodd" d="M16.6425 7.92858C17.0558 8.22704 17.1489 8.80404 16.8505 9.21734L12.4237 15.3474C12.4236 15.3475 12.4238 15.3473 12.4237 15.3474C12.2341 15.6102 11.9873 15.8271 11.7024 15.9814C11.4174 16.1357 11.1011 16.2237 10.7773 16.2389C10.4535 16.254 10.1304 16.1958 9.83224 16.0687C9.53413 15.9416 9.26855 15.7489 9.05527 15.5049C9.0552 15.5048 9.05534 15.505 9.05527 15.5049L7.20296 13.3867C6.86736 13.003 6.90641 12.4198 7.29017 12.0842C7.67393 11.7486 8.25709 11.7877 8.59268 12.1714L10.445 14.2896C10.4755 14.3245 10.5136 14.3522 10.5562 14.3704C10.5988 14.3886 10.645 14.3969 10.6912 14.3947C10.7375 14.3925 10.7827 14.38 10.8234 14.3579C10.8641 14.3359 10.8993 14.3049 10.9264 14.2674L15.3538 8.13651C15.6522 7.72321 16.2292 7.63012 16.6425 7.92858Z" fill="currentColor"/>
<path fill-rule="evenodd" clip-rule="evenodd" d="M12 1.84615C6.39219 1.84615 1.84615 6.39219 1.84615 12C1.84615 17.6078 6.39219 22.1538 12 22.1538C17.6078 22.1538 22.1538 17.6078 22.1538 12C22.1538 6.39219 17.6078 1.84615 12 1.84615ZM0 12C0 5.37258 5.37258 0 12 0C18.6274 0 24 5.37258 24 12C24 18.6274 18.6274 24 12 24C5.37258 24 0 18.6274 0 12Z" fill="currentColor"/>
</svg>
