<svg width="24" height="24" viewBox="0 0 24 24" xmlns="http://www.w3.org/2000/svg">
<path fill-rule="evenodd" clip-rule="evenodd" d="M23.086 2.4174C24.073 3.13011 24.2953 4.50795 23.5827 5.49488L13.0118 20.1331C13.012 20.1328 13.0116 20.1333 13.0118 20.1331C12.559 20.7606 11.9697 21.2786 11.2894 21.647C10.6088 22.0155 9.85351 22.2256 9.0803 22.2619C8.30708 22.298 7.53554 22.159 6.82355 21.8555C6.11169 21.552 5.4775 21.0918 4.9682 20.5092C4.96837 20.5094 4.96803 20.5089 4.9682 20.5092L0.544999 15.451C-0.256393 14.5348 -0.163144 13.1422 0.753251 12.3408C1.66965 11.5394 3.06219 11.6327 3.86356 12.549L8.28678 17.6071C8.35962 17.6905 8.4506 17.7566 8.55232 17.8001C8.65405 17.8435 8.76437 17.8633 8.8747 17.8581C8.98526 17.8528 9.09319 17.823 9.19038 17.7702C9.28757 17.7177 9.37163 17.6437 9.43634 17.5541L20.0087 2.91393C20.7212 1.92699 22.0991 1.7047 23.086 2.4174Z" fill="currentColor"/>
</svg>
