<svg width="24" height="24" viewBox="0 0 24 24" fill="none" xmlns="http://www.w3.org/2000/svg">
<path d="M22.791 13.0523C23 12.5476 23 11.9059 23 10.625C23 9.34411 23 8.70244 22.791 8.19767C22.6528 7.86392 22.4502 7.56066 22.1948 7.30524C21.9393 7.04981 21.6361 6.8472 21.3023 6.709C20.7976 6.5 20.1559 6.5 18.875 6.5H10.9C9.36 6.5 8.59 6.5 8.00211 6.79944C7.48421 7.06318 7.06318 7.48421 6.79944 8.00211C6.5 8.58878 6.5 9.35878 6.5 10.9V18.875C6.5 20.1559 6.5 20.7976 6.709 21.3023C6.98889 21.9758 7.52422 22.5123 8.19767 22.791C8.70244 23 9.34411 23 10.625 23C11.9059 23 12.5476 23 13.0523 22.791M22.791 13.0523C22.6528 13.3861 22.4502 13.6893 22.1948 13.9448C21.9393 14.2002 21.6361 14.4028 21.3023 14.541C20.7976 14.75 20.1559 14.75 18.875 14.75C17.5941 14.75 16.9524 14.75 16.4477 14.959C16.1139 15.0972 15.8107 15.2998 15.5552 15.5552C15.2998 15.8107 15.0972 16.1139 14.959 16.4477C14.75 16.9524 14.75 17.5941 14.75 18.875C14.75 20.1559 14.75 20.7976 14.541 21.3023C14.4028 21.6361 14.2002 21.9393 13.9448 22.1948C13.6893 22.4502 13.3861 22.6528 13.0523 22.791M22.791 13.0523C22.1337 15.3195 20.9244 17.3883 19.2713 19.0734C17.6182 20.7585 15.573 22.0073 13.3188 22.7079L13.0523 22.791M17.5 6.5V5.4C17.5 3.86 17.5 3.09 17.2006 2.50211C16.9371 1.98439 16.5166 1.56338 15.9991 1.29944C15.41 1 14.64 1 13.1 1H5.4C3.86 1 3.09 1 2.50211 1.29944C1.98421 1.56318 1.56318 1.98421 1.29944 2.50211C1 3.08878 1 3.85878 1 5.4V13.1C1 14.64 1 15.41 1.29944 15.9979C1.56344 16.5161 1.98389 16.9366 2.50211 17.2006C3.08878 17.5 3.86 17.5 5.40122 17.5H6.5" stroke="currentColor" stroke-width="1.5" stroke-linecap="round" stroke-linejoin="round"/>
</svg>
