<svg width="24" height="24" viewBox="0 0 24 24" xmlns="http://www.w3.org/2000/svg">
<path fill-rule="evenodd" clip-rule="evenodd" d="M12 6.15381C12.5098 6.15381 12.9231 6.56708 12.9231 7.07689V7.69227C12.9231 8.20207 12.5098 8.61535 12 8.61535C11.4902 8.61535 11.0769 8.20207 11.0769 7.69227V7.07689C11.0769 6.56708 11.4902 6.15381 12 6.15381ZM10.4615 10.7692C10.4615 10.2594 10.8748 9.84612 11.3846 9.84612H12C12.5098 9.84612 12.9231 10.2594 12.9231 10.7692V16.0525C13.2816 16.1792 13.5385 16.5211 13.5385 16.923C13.5385 17.4328 13.1252 17.8461 12.6154 17.8461H11.3846C10.8748 17.8461 10.4615 17.4328 10.4615 16.923C10.4615 16.5211 10.7184 16.1792 11.0769 16.0525V11.6397C10.7184 11.513 10.4615 11.1711 10.4615 10.7692Z" fill="currentColor"/>
<path fill-rule="evenodd" clip-rule="evenodd" d="M18.5084 0.0701433C17.6498 -1.24757e-05 16.5847 -6.90184e-06 15.2406 1.40675e-07H8.75939C7.41534 -6.90184e-06 6.3502 -1.24757e-05 5.4916 0.0701433C4.61356 0.141887 3.87051 0.291634 3.192 0.63723C2.09202 1.19771 1.19765 2.09215 0.637165 3.19213C0.29157 3.87064 0.141887 4.61356 0.0701433 5.4916C-1.24757e-05 6.3502 -6.90184e-06 7.41534 1.40675e-07 8.75939V15.2406C-6.90184e-06 16.5847 -1.24757e-05 17.6498 0.0701433 18.5084C0.141887 19.3864 0.291634 20.1295 0.63723 20.808C1.19771 21.908 2.09215 22.8024 3.19213 23.3628C3.87064 23.7084 4.61356 23.8581 5.4916 23.9299C6.35019 24 7.41532 24 8.75937 24H15.2406C16.5847 24 17.6498 24 18.5084 23.9299C19.3864 23.8581 20.1295 23.7084 20.808 23.3628C21.908 22.8023 22.8024 21.9078 23.3628 20.8079C23.7084 20.1294 23.8581 19.3864 23.9299 18.5084C24 17.6498 24 16.5847 24 15.2406V8.75937C24 7.41532 24 6.35019 23.9299 5.4916C23.8581 4.61356 23.7084 3.87051 23.3628 3.192C22.8023 2.09202 21.9079 1.19765 20.8079 0.637165C20.1294 0.29157 19.3864 0.141887 18.5084 0.0701433ZM4.03016 2.28216C4.40516 2.09117 4.87822 1.97257 5.64194 1.91017C6.41655 1.84687 7.40631 1.84615 8.8 1.84615H15.2C16.5937 1.84615 17.5834 1.84687 18.3581 1.91017C19.1219 1.97258 19.5949 2.0912 19.97 2.28222C20.7225 2.66571 21.3344 3.27758 21.7178 4.03016C21.9088 4.40516 22.0274 4.87822 22.0898 5.64194C22.1531 6.41656 22.1538 7.40631 22.1538 8.8V15.2C22.1538 16.5937 22.1531 17.5834 22.0898 18.3581C22.0274 19.1218 21.9088 19.5948 21.7178 19.9698C21.3344 20.7225 20.7225 21.3344 19.9698 21.7178C19.5948 21.9088 19.1218 22.0274 18.3581 22.0898C17.5834 22.1531 16.5937 22.1538 15.2 22.1538H8.8C7.40631 22.1538 6.41656 22.1531 5.64194 22.0898C4.87822 22.0274 4.40516 21.9088 4.03016 21.7178C3.27758 21.3344 2.66571 20.7225 2.28222 19.97C2.0912 19.5949 1.97258 19.1219 1.91017 18.3581C1.84687 17.5834 1.84615 16.5937 1.84615 15.2V8.8C1.84615 7.40631 1.84687 6.41655 1.91017 5.64194C1.97257 4.87822 2.09117 4.40516 2.28216 4.03016C2.66563 3.27764 3.27764 2.66563 4.03016 2.28216Z" fill="currentColor"/>
</svg>
