<svg width="24" height="24" viewBox="0 0 24 24" fill="none" xmlns="http://www.w3.org/2000/svg">
<path d="M1 12H4.66667M3.44444 3.44444L6.03678 6.03678M20.5556 3.44444L17.9632 6.03678M3.44444 20.5556L6.03678 17.9632M20.5556 20.5556L17.9632 17.9632M12 1V4.66667M12 23V19.3333M19.3333 12H23M15.6667 12C15.6667 12.9725 15.2804 13.9051 14.5927 14.5927C13.9051 15.2804 12.9725 15.6667 12 15.6667C11.0275 15.6667 10.0949 15.2804 9.40727 14.5927C8.71964 13.9051 8.33333 12.9725 8.33333 12C8.33333 11.0275 8.71964 10.0949 9.40727 9.40727C10.0949 8.71964 11.0275 8.33333 12 8.33333C12.9725 8.33333 13.9051 8.71964 14.5927 9.40727C15.2804 10.0949 15.6667 11.0275 15.6667 12Z" stroke="currentColor" stroke-width="1.5" stroke-linecap="round" stroke-linejoin="round"/>
</svg>
