<svg width="24" height="24" viewBox="0 0 24 24" xmlns="http://www.w3.org/2000/svg">
<path fill-rule="evenodd" clip-rule="evenodd" d="M11.9222 8.23694C12.395 8.23694 12.7784 8.62029 12.7784 9.09318V15.3722C12.7784 15.8451 12.395 16.2284 11.9222 16.2284C11.4493 16.2284 11.0659 15.8451 11.0659 15.3722V9.09318C11.0659 8.62029 11.4493 8.23694 11.9222 8.23694ZM11.9222 17.652C12.395 17.652 12.7784 18.0354 12.7784 18.5083V19.0791C12.7784 19.552 12.395 19.9353 11.9222 19.9353C11.4493 19.9353 11.0659 19.552 11.0659 19.0791V18.5083C11.0659 18.0354 11.4493 17.652 11.9222 17.652Z" fill="currentColor"/>
<path fill-rule="evenodd" clip-rule="evenodd" d="M21.8974 18.9385L13.639 3.83981C12.9304 2.54425 11.0696 2.54425 10.361 3.83981L2.10258 18.9385C1.42165 20.1834 2.32258 21.7031 3.74156 21.7031H20.2584C21.6774 21.7031 22.5784 20.1834 21.8974 18.9385ZM15.278 2.94334C13.8607 0.35222 10.1393 0.35222 8.72202 2.94334L0.463591 18.042C-0.898272 20.5319 0.903593 23.5712 3.74156 23.5712H20.2584C23.0964 23.5712 24.8983 20.5319 23.5364 18.042L15.278 2.94334Z" fill="currentColor"/>
</svg>
