<svg xmlns="http://www.w3.org/2000/svg" viewBox="0 0 24 24" width="24" height="24"><path d="M 5 3 C 3.898438 3 3 3.898438 3 5 L 3 19 C 3 20.101563 3.898438 21 5 21 L 19 21 C 20.101563 21 21 20.101563 21 19 L 21 5 C 21 3.898438 20.101563 3 19 3 Z M 6.40625 7.6875 L 9 7.6875 C 11.300781 7.6875 11.6875 9.101563 11.6875 10 C 11.6875 11.300781 10.792969 11.710938 10.59375 11.8125 C 10.792969 11.914063 11.8125 12.1875 11.8125 13.6875 C 11.914063 15.488281 10.789063 16.1875 9.1875 16.1875 L 6.40625 16.1875 Z M 13.40625 7.6875 L 17.09375 7.6875 L 17.09375 8.6875 L 13.40625 8.6875 Z M 8.09375 9.09375 L 8.09375 11.1875 L 9 11.1875 C 9.601563 11.1875 10 10.988281 10 10.1875 C 10 9.488281 9.699219 9.09375 9 9.09375 Z M 15.59375 9.8125 C 16.992188 9.8125 18 10.605469 18 12.90625 L 18 13.59375 L 14.59375 13.59375 C 14.59375 13.894531 14.613281 15 15.8125 15 C 16.613281 15 16.988281 14.605469 17.1875 14.40625 L 17.90625 15.40625 C 17.804688 15.507813 17.113281 16.3125 15.8125 16.3125 C 14.3125 16.3125 13.09375 15.507813 13.09375 13.40625 L 13.09375 12.90625 C 13.09375 10.605469 14.292969 9.8125 15.59375 9.8125 Z M 15.40625 11.09375 C 15.105469 11.09375 14.5 11.207031 14.5 12.40625 L 16.1875 12.40625 C 16.1875 12.40625 16.40625 11.09375 15.40625 11.09375 Z M 8.09375 12.5 L 8.09375 14.8125 L 9.1875 14.8125 C 9.789063 14.8125 10.09375 14.386719 10.09375 13.6875 C 10.195313 12.886719 9.914063 12.5 9.3125 12.5 Z" fill="currentColor"/></svg>
