<svg width="24" height="24" viewBox="0 0 24 24" xmlns="http://www.w3.org/2000/svg">
<path d="M18.9313 6.2443C17.6345 5.65869 16.266 5.24074 14.8601 5.00086C14.8473 4.99874 14.8342 5.00057 14.8227 5.00607C14.811 5.01158 14.8013 5.02049 14.7951 5.0316C14.6188 5.33908 14.4238 5.74126 14.2876 6.05612C12.7721 5.82982 11.2306 5.82982 9.71513 6.05612C9.56315 5.70537 9.39121 5.36333 9.20014 5.0316C9.19372 5.02062 9.18408 5.0118 9.17248 5.00632C9.16088 5.00082 9.14786 4.99892 9.13514 5.00086C7.7289 5.23946 6.36017 5.65763 5.06393 6.2443C5.05284 6.24846 5.04356 6.25628 5.03768 6.26643C2.44521 10.0779 1.73396 13.7959 2.08271 17.4672C2.08396 17.4845 2.09521 17.5017 2.10896 17.5127C3.6186 18.613 5.30717 19.4531 7.10266 19.9972C7.11534 20.0011 7.12896 20.0009 7.14154 19.9967C7.15413 19.9926 7.16503 19.9845 7.17266 19.9738C7.55766 19.4572 7.90015 18.9124 8.19515 18.3392C8.2013 18.3274 8.2034 18.314 8.20115 18.3009C8.1989 18.2878 8.19241 18.2759 8.18265 18.2667C8.17619 18.2607 8.16852 18.2561 8.16015 18.2531C7.62161 18.0495 7.10003 17.8048 6.60017 17.5213C6.5862 17.5136 6.57582 17.5008 6.57117 17.4857C6.56651 17.4706 6.56794 17.4543 6.57517 17.4402C6.57942 17.431 6.58585 17.423 6.59392 17.4168C6.69891 17.3393 6.80391 17.2581 6.90391 17.177C6.91275 17.17 6.92335 17.1655 6.93457 17.1639C6.9458 17.1625 6.95724 17.1639 6.96766 17.1684C10.2414 18.6393 13.7851 18.6393 17.0188 17.1684C17.0296 17.1638 17.0415 17.1621 17.0531 17.1636C17.0648 17.1652 17.0758 17.1698 17.0851 17.177C17.185 17.2581 17.29 17.3393 17.395 17.4168C17.4035 17.423 17.4104 17.431 17.415 17.4403C17.4195 17.4497 17.4216 17.46 17.4211 17.4704C17.4206 17.4808 17.4175 17.4908 17.4121 17.4997C17.4067 17.5086 17.3991 17.516 17.39 17.5213C16.8913 17.8074 16.3691 18.0518 15.8288 18.2519C15.8202 18.2549 15.8124 18.2599 15.8059 18.2663C15.7994 18.2727 15.7945 18.2804 15.7913 18.2888C15.7884 18.297 15.7872 18.3057 15.7879 18.3144C15.7886 18.3231 15.791 18.3315 15.7951 18.3392C16.0951 18.9111 16.4388 19.4572 16.8163 19.9738C16.824 19.9845 16.8348 19.9926 16.8474 19.9967C16.86 20.0009 16.8736 20.0011 16.8863 19.9972C18.6848 19.4548 20.3761 18.6146 21.8875 17.5127C21.8951 17.5076 21.9013 17.5008 21.9059 17.4929C21.9105 17.485 21.9132 17.4763 21.9138 17.4672C22.3312 13.2228 21.215 9.53554 18.9563 6.26766C18.954 6.26227 18.9506 6.2574 18.9463 6.25337C18.942 6.24935 18.9369 6.24626 18.9313 6.2443ZM8.68389 15.2313C7.69765 15.2313 6.88641 14.3408 6.88641 13.2486C6.88641 12.1552 7.68265 11.2648 8.68389 11.2648C9.69263 11.2648 10.4964 12.1626 10.4814 13.2486C10.4814 14.3408 9.68513 15.2313 8.68389 15.2313ZM15.3288 15.2313C14.3438 15.2313 13.5313 14.3408 13.5313 13.2486C13.5313 12.1552 14.3276 11.2648 15.3288 11.2648C16.3376 11.2648 17.1426 12.1626 17.1263 13.2486C17.1263 14.3408 16.3376 15.2313 15.3288 15.2313Z" fill="currentColor"/>
</svg>
