<svg xmlns="http://www.w3.org/2000/svg" viewBox="0 0 24 24" width="24" height="24"><path d="M 5 2 C 3.347656 2 2 3.347656 2 5 L 2 19 C 2 20.652344 3.347656 22 5 22 L 19 22 C 20.652344 22 22 20.652344 22 19 L 22 5 C 22 3.347656 20.652344 2 19 2 Z M 5 4 L 19 4 C 19.550781 4 20 4.449219 20 5 L 20 19 C 20 19.550781 19.550781 20 19 20 L 5 20 C 4.449219 20 4 19.550781 4 19 L 4 5 C 4 4.449219 4.449219 4 5 4 Z M 8 9 C 6.34375 9 5 10.34375 5 12 C 5 13.65625 6.34375 15 8 15 C 9.65625 15 11 13.65625 11 12 C 11 10.34375 9.65625 9 8 9 Z M 16 9 C 14.34375 9 13 10.34375 13 12 C 13 13.65625 14.34375 15 16 15 C 17.65625 15 19 13.65625 19 12 C 19 10.34375 17.65625 9 16 9 Z" fill="currentColor"/></svg>
