<svg width="24" height="24" viewBox="0 0 24 24" xmlns="http://www.w3.org/2000/svg">
<path d="M20.6586 7.10534C19.7643 5.53477 18.5514 4.29134 17.0193 3.37479C15.4871 2.45819 13.8143 2 11.9999 2C10.1857 2 8.51238 2.45833 6.98046 3.37479C5.44831 4.2913 4.23538 5.53477 3.34116 7.10534C2.44707 8.67587 2 10.3909 2 12.2504C2 14.484 2.63574 16.4926 3.90753 18.2766C5.17919 20.0607 6.82198 21.2953 8.83578 21.9803C9.07018 22.0249 9.24371 21.9936 9.35654 21.887C9.46941 21.7803 9.52577 21.6468 9.52577 21.4868C9.52577 21.4601 9.52354 21.2199 9.51921 20.7661C9.5151 20.3702 9.51291 19.9743 9.51264 19.5783L9.21316 19.6314C9.02221 19.6673 8.78132 19.6825 8.49049 19.6782C8.19981 19.674 7.89803 19.6428 7.58559 19.5848C7.27302 19.5272 6.98228 19.3938 6.71317 19.1846C6.44418 18.9755 6.25323 18.7018 6.14037 18.3639L6.01016 18.0568C5.92337 17.8523 5.78674 17.6252 5.60007 17.3762C5.41342 17.1269 5.22466 16.958 5.03371 16.869L4.94254 16.8021C4.8818 16.7577 4.82542 16.704 4.7733 16.6418C4.72122 16.5796 4.68222 16.5173 4.65618 16.455C4.6301 16.3926 4.65172 16.3413 4.72127 16.3012C4.79082 16.2611 4.9165 16.2416 5.09888 16.2416L5.35919 16.2814C5.53281 16.3171 5.74757 16.4237 6.00373 16.6017C6.25976 16.7797 6.47022 17.0109 6.63518 17.2956C6.83493 17.6605 7.07559 17.9385 7.35784 18.1299C7.63987 18.3213 7.92422 18.4168 8.21062 18.4168C8.49702 18.4168 8.74438 18.3945 8.95279 18.3502C9.16098 18.3057 9.35631 18.2388 9.53868 18.1499C9.61681 17.5535 9.82951 17.0953 10.1766 16.775C9.68188 16.7218 9.2371 16.6414 8.84202 16.5348C8.44717 16.4278 8.03914 16.2544 7.6182 16.0139C7.19704 15.7738 6.84766 15.4756 6.56997 15.1198C6.29223 14.7638 6.06429 14.2966 5.88648 13.7183C5.70858 13.1398 5.6196 12.4726 5.6196 11.7163C5.6196 10.6394 5.96255 9.72305 6.64832 8.96665C6.32707 8.15705 6.3574 7.24947 6.73939 6.244C6.99113 6.16383 7.36446 6.22399 7.85918 6.42412C8.354 6.62434 8.71628 6.79587 8.94641 6.93808C9.17653 7.08024 9.36092 7.20071 9.49982 7.29842C10.3073 7.06715 11.1405 6.95149 11.9998 6.95149C12.8591 6.95149 13.6926 7.06715 14.5 7.29842L14.9948 6.97824C15.3332 6.76459 15.7327 6.56881 16.1925 6.39084C16.6526 6.21296 17.0043 6.16396 17.2475 6.24414C17.638 7.24966 17.6728 8.1572 17.3514 8.96679C18.0372 9.72319 18.3802 10.6398 18.3802 11.7164C18.3802 12.4728 18.291 13.1421 18.1133 13.725C17.9355 14.308 17.7056 14.7748 17.4236 15.1265C17.1413 15.4781 16.7896 15.774 16.3687 16.0141C15.9477 16.2543 15.5395 16.4278 15.1446 16.5347C14.7496 16.6415 14.3048 16.7218 13.8101 16.7753C14.2613 17.1755 14.4869 17.8073 14.4869 18.6704V21.4864C14.4869 21.6463 14.5412 21.7799 14.6498 21.8867C14.7583 21.9932 14.9297 22.0246 15.1641 21.9799C17.1782 21.2949 18.8209 20.0603 20.0926 18.2762C21.364 16.4923 22 14.4837 22 12.25C21.9996 10.3908 21.5523 8.67587 20.6586 7.10534Z" fill="currentColor"/>
</svg>
