<svg width="24" height="24" viewBox="0 0 24 24" xmlns="http://www.w3.org/2000/svg">
<path d="M10.6045 3.08806C7.95529 3.55077 5.88424 4.90396 4.44 7.10421C3.43729 8.64058 3 10.1473 3 12.0659C3 12.8886 3.07412 13.4805 3.27212 14.263C3.56553 15.3914 4.07309 16.4529 4.76718 17.3897C6.09858 19.1727 8.03824 20.4047 10.218 20.8521C10.9571 20.9993 11.1148 21.0099 12.1472 20.995C13.0546 20.9802 13.2081 20.9696 13.6528 20.8817C15.5375 20.5101 17.0358 19.717 18.3773 18.3787C19.7474 17.0043 20.5447 15.4648 20.9079 13.4953C20.9926 13.0358 21 12.896 21 12.0246C21 11.1648 20.9894 11.0039 20.9079 10.5475C20.6777 9.25848 20.1877 8.02969 19.4679 6.93586C18.5975 5.6229 17.4371 4.63184 15.9124 3.89277C14.52 3.22041 13.5025 2.99276 11.9079 3.00017C11.2355 3.00335 11.0153 3.01817 10.6045 3.08806ZM12.2319 3.6323C12.3748 3.69477 12.6724 4.0103 12.882 4.32689C13.3193 4.99184 13.6719 6.01044 13.9652 7.46845L13.9906 7.58916H12C10.1227 7.58916 10.0126 7.58598 10.0306 7.52351C10.0412 7.49069 10.1079 7.19633 10.182 6.87339C10.4467 5.72243 10.7368 4.92196 11.082 4.38195C11.5076 3.72018 11.8676 3.48194 12.2319 3.6323ZM10.3832 4.36289C9.97235 5.23114 9.73306 5.95114 9.51706 7.00151C9.462 7.25563 9.40271 7.49069 9.38471 7.52351C9.35506 7.58598 9.25976 7.59022 8.19882 7.59022C7.56247 7.59022 7.04047 7.57963 7.04047 7.56798C7.04047 7.55739 7.15059 7.33292 7.284 7.07139C7.87059 5.91726 8.62871 5.00984 9.50224 4.41795C9.78176 4.22736 10.5124 3.84195 10.5928 3.84195C10.6151 3.84195 10.5229 4.07701 10.3842 4.36289H10.3832ZM13.9514 4.09818C15.0896 4.67207 15.9854 5.63455 16.7425 7.08939L17.0029 7.59022H14.6195L14.5751 7.35727C14.4307 6.66686 14.2519 5.98412 14.0393 5.31161C13.9235 4.98729 13.791 4.66921 13.6422 4.35866C13.5173 4.1056 13.4104 3.88959 13.4029 3.87159C13.3881 3.83453 13.5935 3.92242 13.9504 4.09924L13.9514 4.09818ZM8.23059 4.66042C7.54765 5.38043 7.06271 6.09409 6.60318 7.05656C6.53233 7.21836 6.44915 7.37447 6.35435 7.52351C6.30247 7.5828 6.21776 7.59022 5.57929 7.59022H4.86565L4.94718 7.45363C5.12294 7.1561 5.57188 6.59703 5.93824 6.21479C6.5531 5.56023 7.27361 5.01367 8.06965 4.59795C8.20108 4.52569 8.33455 4.45719 8.46988 4.39254C8.47729 4.39254 8.37035 4.51431 8.23059 4.66042ZM16.1506 4.71337C17.3344 5.38043 18.2449 6.23385 19.0496 7.41657L19.1661 7.58916L18.4207 7.5828L17.6753 7.57222L17.5472 7.31386C16.9373 6.07503 16.5476 5.49161 15.8171 4.70913C15.4931 4.36289 15.5344 4.36395 16.1506 4.71337ZM6.10447 8.2774C6.02294 8.48281 5.74765 9.66553 5.68518 10.088C5.61529 10.5433 5.53482 11.3861 5.53482 11.636V11.7419H3.58235L3.60459 11.5291C3.75282 10.2055 3.90212 9.56706 4.28435 8.68081C4.50141 8.17787 4.42094 8.21493 5.34318 8.21493C6.07694 8.21493 6.12882 8.2181 6.10341 8.2774H6.10447ZM9.24177 8.36846C9.24177 8.4574 9.18565 9.24729 9.12424 10.1261L9.00565 11.7239L7.57624 11.7345L6.14788 11.7419L6.17435 11.312C6.20294 10.7932 6.30988 10.0192 6.41259 9.53741C6.54494 8.9307 6.71753 8.35364 6.79059 8.28058C6.85412 8.2181 6.942 8.21387 8.05059 8.21387H9.24494L9.24177 8.36846ZM14.1272 8.49764C14.2331 9.25047 14.3506 10.7826 14.3506 11.455V11.7419H12C10.7072 11.7419 9.64941 11.7313 9.64941 11.7133C9.66741 10.6873 9.84 8.50823 9.92471 8.25834C9.93529 8.22552 10.3874 8.21387 12.0148 8.21387H14.0869L14.1272 8.49764ZM17.2274 8.2774C17.2899 8.35046 17.4995 9.06729 17.6171 9.61153C17.7229 10.1251 17.8045 10.7424 17.8288 11.2718L17.8521 11.7419H15.0155L14.9975 11.5471C14.9869 11.4444 14.9351 10.7614 14.8842 10.0329C14.8473 9.50874 14.8092 8.98462 14.7699 8.46058L14.7445 8.21493H15.9568C17.0622 8.21493 17.1724 8.22128 17.2274 8.2774ZM19.5007 8.2774C19.6627 8.46058 19.9719 9.24305 20.136 9.88259C20.2652 10.3792 20.3499 10.9118 20.3944 11.437L20.4155 11.7419H18.4758L18.4546 11.2898C18.4053 10.394 18.2562 9.50645 18.0099 8.64376L17.8849 8.21493H18.6674C19.362 8.21493 19.4531 8.22128 19.5007 8.2774ZM5.55282 12.6864C5.62271 13.6563 5.76247 14.5129 5.97635 15.2699C6.05259 15.5421 6.12988 15.7951 6.14047 15.8311C6.16694 15.8904 6.11929 15.8946 5.36541 15.8872L4.56071 15.8766L4.44424 15.6553C4.17212 15.145 3.84071 14.1455 3.738 13.5239C3.67235 13.1427 3.59506 12.4259 3.61306 12.392C3.62047 12.3783 4.05776 12.3666 4.57976 12.3666H5.52741L5.55282 12.6864ZM9.12 13.9114C9.18565 14.749 9.24812 15.5389 9.25976 15.6638L9.27776 15.8957H8.07282C7.09871 15.8957 6.85729 15.8851 6.82341 15.8438C6.71435 15.7115 6.45282 14.7564 6.32471 14.0036C6.22941 13.4371 6.14047 12.5106 6.17435 12.4227C6.19235 12.3751 6.37235 12.3677 7.59953 12.3751L9.00565 12.3857L9.12 13.9114ZM14.3506 12.6144C14.3474 13.2677 14.2299 14.785 14.1198 15.5653L14.0753 15.8777L12.0254 15.8883L9.97977 15.8957L9.94271 15.8152C9.92471 15.7665 9.85059 15.0613 9.77753 14.2418C9.72759 13.6805 9.67606 13.1193 9.62294 12.5583L9.60176 12.3677H14.3506V12.6144ZM17.8256 12.7901C17.8002 13.2867 17.7272 13.849 17.6171 14.389C17.5144 14.9036 17.2645 15.7528 17.1904 15.829C17.1353 15.8925 17.0326 15.8957 15.9409 15.8957H14.7551V15.7782C14.7551 15.6384 14.9647 12.8378 14.9975 12.5593L15.0155 12.3687H17.8521L17.8256 12.7901ZM20.4124 12.4598C20.4124 12.6546 20.2218 13.8193 20.1371 14.1433C19.9751 14.7638 19.6182 15.6638 19.4679 15.829C19.4128 15.8883 19.3324 15.8957 18.6314 15.8957H17.8521L17.9686 15.4986C18.2153 14.6865 18.4027 13.6467 18.4504 12.7986L18.4758 12.3677H20.4124V12.4598ZM6.38718 16.5829C6.42 16.6199 6.55976 16.8804 6.70271 17.1631C7.08724 17.9383 7.58347 18.6529 8.17553 19.284C8.32376 19.4417 8.42224 19.5699 8.4 19.5699C8.33435 19.5699 7.77529 19.2649 7.40788 19.0267C6.77693 18.6218 6.20655 18.1294 5.71376 17.5644C5.39188 17.1928 4.94718 16.6051 4.94718 16.5501C4.94718 16.5352 5.25953 16.5204 5.63753 16.5204C6.25165 16.5204 6.33953 16.5278 6.38718 16.5829ZM19.0676 16.5649C18.9613 16.7194 18.8512 16.8712 18.7373 17.0202C17.9684 18.0467 16.9792 18.8879 15.8425 19.482C15.4528 19.6842 15.4454 19.7022 16.0076 19.0775C16.5582 18.4826 17.0129 17.8056 17.3555 17.071C17.4656 16.8402 17.5832 16.6199 17.6128 16.5829C17.6605 16.5278 17.7494 16.5194 18.3805 16.5194C18.9427 16.5194 19.0899 16.531 19.0687 16.5649H19.0676ZM9.48 16.8582C9.72988 18.0303 10.0126 18.9166 10.3652 19.6291C10.6553 20.2136 10.6595 20.1946 10.2593 20.0103C9.03106 19.4597 7.98494 18.3617 7.20565 16.8179L7.07753 16.5575H9.41753L9.48 16.8582ZM13.9472 16.6009C13.9472 16.6274 13.9069 16.8296 13.8551 17.053C13.5205 18.546 13.0906 19.5624 12.5696 20.1024C12.2276 20.4561 11.9555 20.5037 11.6146 20.2687C11.0778 19.8981 10.5155 18.6773 10.1852 17.1631C10.1301 16.9207 10.0793 16.6867 10.0719 16.6379L10.0528 16.5575H12C13.5321 16.5575 13.9472 16.5681 13.9472 16.6009ZM16.8896 16.6379C16.8378 16.7777 16.4481 17.4755 16.2724 17.7518C15.9876 18.1858 15.6564 18.5873 15.2845 18.9494C14.9648 19.2748 14.6025 19.5554 14.2076 19.7837C13.9355 19.9447 13.3924 20.202 13.3669 20.1808C13.3595 20.1734 13.4771 19.9267 13.6274 19.6334C13.9504 19.0002 14.1346 18.4644 14.3876 17.4204C14.4904 16.9948 14.5825 16.6263 14.5888 16.6009C14.6005 16.5681 14.8694 16.5575 15.762 16.5575H16.9225L16.8896 16.6379Z" fill="currentColor"/>
</svg>
