<svg width="24" height="24" viewBox="0 0 24 24" fill="none" xmlns="http://www.w3.org/2000/svg">
<path d="M23 12C23 13.4445 22.7155 14.8749 22.1627 16.2095C21.6099 17.5441 20.7996 18.7567 19.7782 19.7782C18.7567 20.7996 17.5441 21.6099 16.2095 22.1627C14.8749 22.7155 13.4445 23 12 23C10.5555 23 9.12506 22.7155 7.79048 22.1627C6.4559 21.6099 5.24327 20.7996 4.22183 19.7782C3.20038 18.7567 2.39013 17.5441 1.83733 16.2095C1.28452 14.8749 1 13.4445 1 12C1 9.08262 2.15893 6.28473 4.22183 4.22183C6.28473 2.15893 9.08262 1 12 1C14.9174 1 17.7153 2.15893 19.7782 4.22183C21.8411 6.28473 23 9.08262 23 12Z" stroke="currentColor" stroke-width="1.83333" stroke-linecap="round" stroke-linejoin="round"/>
<path d="M18.1111 21.1666C17.7237 13.6047 6.27636 13.6047 5.88892 21.1666M15.0556 8.63881C15.0556 9.44919 14.7337 10.2264 14.1606 10.7994C13.5876 11.3724 12.8104 11.6944 12 11.6944C11.1896 11.6944 10.4125 11.3724 9.83942 10.7994C9.26639 10.2264 8.94447 9.44919 8.94447 8.63881C8.94447 7.82842 9.26639 7.05123 9.83942 6.4782C10.4125 5.90518 11.1896 5.58325 12 5.58325C12.8104 5.58325 13.5876 5.90518 14.1606 6.4782C14.7337 7.05123 15.0556 7.82842 15.0556 8.63881Z" stroke="currentColor" stroke-width="1.83333" stroke-linecap="round" stroke-linejoin="round"/>
</svg>
