<svg width="24" height="24" viewBox="0 0 24 24" xmlns="http://www.w3.org/2000/svg">
<path fill-rule="evenodd" clip-rule="evenodd" d="M2.40039 15.6147C4.42463 14.6741 6.61395 14.1428 8.84318 14.051L11.2847 6.54958C11.3751 6.18697 11.6464 5.93768 11.9402 5.93768C12.2341 5.93768 12.5054 6.18697 12.5958 6.57224L14.9921 14.0283C18.8125 14.0283 21.4349 15.6147 21.4349 15.6147L15.9642 0.725213C15.8059 0.271955 15.5346 0 15.1955 0H8.63972C8.30063 0 8.02935 0.271955 7.87111 0.725213L2.40039 15.6147Z" fill="currentColor"/>
<path d="M7.64505 15.864C7.19292 17.3598 7.50941 19.4448 8.59451 20.4419C8.60848 20.3887 8.62356 20.3358 8.63972 20.2833C8.69424 19.9854 8.85509 19.7175 9.09223 19.5299C9.32937 19.3422 9.62657 19.2475 9.92828 19.2635C10.5613 19.2861 10.9004 19.6034 10.9908 20.3286C11.036 20.5779 11.036 20.8499 11.036 21.1218V21.2125C11.036 21.8244 11.1942 22.3909 11.5333 22.8895C11.8444 23.3788 12.2927 23.7651 12.8219 24V23.932L12.7767 23.864C12.3698 22.5949 12.6636 21.711 13.7713 20.9632L14.1104 20.7365C14.3559 20.5768 14.5972 20.4106 14.8338 20.238C15.2596 19.9427 15.6171 19.5592 15.8823 19.1135C16.1475 18.6678 16.3142 18.1702 16.3711 17.6544C16.4389 17.2011 16.3937 16.7479 16.2354 16.2946L16.0546 16.4306L15.6929 16.6572C14.1097 17.3847 12.3394 17.5986 10.6291 17.2691C9.49876 17.1105 8.43627 16.8159 7.64505 15.864Z" fill="currentColor"/>
</svg>
