<svg width="24" height="24" viewBox="0 0 24 24" fill="none" xmlns="http://www.w3.org/2000/svg">
<path d="M15.6645 17.3256L16.0973 16.8928M9.55197 18.5481L9.98473 18.1153M7.10694 7.54547L7.53849 7.11271M5.88443 13.658L6.31597 13.2253M11.997 12.4355L12.4298 12.0028M12.0007 23.0054C14.8466 23.0052 17.5819 21.9028 19.6324 19.9293C21.6829 17.9558 22.8893 15.2647 22.9984 12.4209C23.0057 12.2338 22.8028 12.1152 22.6341 12.1996C19.6071 13.7241 17.7367 12.1054 18.0411 9.93304C18.0463 9.89107 18.0419 9.84847 18.0284 9.80841C18.0148 9.76835 17.9924 9.73187 17.9628 9.70167C17.9332 9.67148 17.8972 9.64835 17.8574 9.63401C17.8176 9.61967 17.7751 9.61449 17.733 9.61886C15.0789 9.98928 13.9603 8.37923 14.3784 6.19093C14.3847 6.15366 14.3831 6.11551 14.3739 6.07885C14.3647 6.0422 14.3481 6.00783 14.325 5.9779C14.302 5.94796 14.273 5.92309 14.2399 5.90485C14.2068 5.8866 14.1703 5.87537 14.1327 5.87185C11.6351 5.64936 11.4285 2.76667 11.8576 1.36078C11.9102 1.18719 11.7855 0.994029 11.6046 1.00014C8.72272 1.1054 5.9973 2.33749 4.01449 4.43143C2.03168 6.52537 0.949885 9.31387 1.00178 12.1972C1.05368 15.0805 2.23513 17.8282 4.29201 19.8495C6.34889 21.8707 9.11689 23.0039 12.0007 23.0054Z" stroke="currentColor" stroke-width="1.5" stroke-linecap="round" stroke-linejoin="round"/>
</svg>
