<svg width="24" height="24" viewBox="0 0 24 24" fill="none" xmlns="http://www.w3.org/2000/svg">
<path d="M9.25 3.5C9.25 4.4665 8.4665 5.25 7.5 5.25C6.5335 5.25 5.75 4.4665 5.75 3.5C5.75 2.5335 6.5335 1.75 7.5 1.75C8.4665 1.75 9.25 2.5335 9.25 3.5Z" stroke="currentColor" stroke-width="1.5"/>
<path d="M9.25 12.3C9.25 13.2665 8.46649 14.05 7.5 14.05C6.53351 14.05 5.75 13.2665 5.75 12.3C5.75 11.3336 6.53351 10.55 7.5 10.55C8.46649 10.55 9.25 11.3336 9.25 12.3Z" stroke="currentColor" stroke-width="1.5"/>
<path d="M9.25 21.1C9.25 22.0665 8.46649 22.85 7.5 22.85C6.53351 22.85 5.75 22.0665 5.75 21.1C5.75 20.1335 6.53351 19.35 7.5 19.35C8.46649 19.35 9.25 20.1335 9.25 21.1Z" stroke="currentColor" stroke-width="1.5"/>
<path d="M18.25 3.5C18.25 4.46649 17.4665 5.25 16.5 5.25C15.5335 5.25 14.75 4.46649 14.75 3.5C14.75 2.53351 15.5335 1.75 16.5 1.75C17.4665 1.75 18.25 2.53351 18.25 3.5Z" stroke="currentColor" stroke-width="1.5"/>
<path d="M18.25 12.3C18.25 13.2665 17.4665 14.05 16.5 14.05C15.5335 14.05 14.75 13.2665 14.75 12.3C14.75 11.3336 15.5335 10.55 16.5 10.55C17.4665 10.55 18.25 11.3336 18.25 12.3Z" stroke="currentColor" stroke-width="1.5"/>
<path d="M18.25 21.1C18.25 22.0665 17.4665 22.85 16.5 22.85C15.5335 22.85 14.75 22.0665 14.75 21.1C14.75 20.1335 15.5335 19.35 16.5 19.35C17.4665 19.35 18.25 20.1335 18.25 21.1Z" stroke="currentColor" stroke-width="1.5"/>
</svg>
