<svg width="24" height="24" viewBox="0 0 24 24" fill="none" xmlns="http://www.w3.org/2000/svg">
<path d="M8.98467 10.9616C8.778 11.1683 8.61409 11.4137 8.50233 11.6838C8.39056 11.9539 8.33313 12.2433 8.33331 12.5356V15.6667H11.4838C12.074 15.6667 12.6411 15.432 13.059 15.0141L22.3466 5.72116C22.5537 5.51455 22.718 5.26912 22.8302 4.99891C22.9423 4.7287 23 4.43902 23 4.14648C23 3.85393 22.9423 3.56426 22.8302 3.29405C22.718 3.02384 22.5537 2.7784 22.3466 2.57179L21.4289 1.65399C21.2222 1.44669 20.9767 1.28222 20.7064 1.16999C20.4361 1.05777 20.1463 1 19.8536 1C19.561 1 19.2712 1.05777 19.0008 1.16999C18.7305 1.28222 18.485 1.44669 18.2784 1.65399L8.98467 10.9616Z" stroke="currentColor" stroke-width="1.5" stroke-linecap="round" stroke-linejoin="round"/>
<path d="M23 12C23 17.1859 23 19.7782 21.3891 21.3891C19.7782 23 17.1847 23 12 23C6.81533 23 4.22178 23 2.61089 21.3891C1 19.7782 1 17.1847 1 12C1 6.81533 1 4.22178 2.61089 2.61089C4.22178 1 6.81533 1 12 1" stroke="currentColor" stroke-width="1.5" stroke-linecap="round" stroke-linejoin="round"/>
</svg>
