<svg width="24" height="24" viewBox="0 0 24 24" fill="none" xmlns="http://www.w3.org/2000/svg">
<path d="M9.30726 1H6.66667C5.95942 1 5.28115 1.28973 4.78105 1.80546C4.28095 2.32118 4 3.02065 4 3.75V20.25C4 20.9793 4.28095 21.6788 4.78105 22.1945C5.28115 22.7103 5.95942 23 6.66667 23H17.3333C18.0406 23 18.7189 22.7103 19.219 22.1945C19.719 21.6788 20 20.9793 20 20.25V12M9.30726 1C10.7804 1 12 2.23078 12 3.75V6.5C12 7.22935 12.281 7.92882 12.781 8.44454C13.2811 8.96027 13.9594 9.25 14.6667 9.25H17.3333C18.0406 9.25 18.7189 9.53973 19.219 10.0555C19.719 10.5712 20 11.2707 20 12M9.30726 1C13.6806 1 20 7.55111 20 12" stroke="currentColor" stroke-width="1.5" stroke-linecap="round" stroke-linejoin="round"/>
</svg>
