<svg width="24" height="24" viewBox="0 0 24 24" fill="none" xmlns="http://www.w3.org/2000/svg">
<path d="M7.39735 9.39611V6.99722C7.39735 3.68556 8.88342 1 12.195 1C15.5066 1 16.9926 3.68556 16.9926 6.99722V9.39611M12.195 16.2929V15.6932M16.9926 16.2929V15.6932M7.39735 16.2929V15.6932M2 18.7518V13.2343C2 11.891 2 11.2193 2.26147 10.7071C2.49125 10.2553 2.85823 9.88789 3.30976 9.65759C3.82311 9.39731 4.49478 9.39731 5.83812 9.39731H18.5519C19.8952 9.39731 20.5669 9.39731 21.0802 9.65759C21.5316 9.88758 21.8985 10.2545 22.1285 10.7059C22.39 11.2193 22.39 11.891 22.39 13.2343V18.7518C22.39 20.0952 22.39 20.7668 22.1285 21.2802C21.8985 21.7316 21.5316 22.0985 21.0802 22.3285C20.5669 22.59 19.8952 22.59 18.5519 22.59H5.83812C4.49478 22.59 3.82311 22.59 3.30976 22.3285C2.85841 22.0985 2.49145 21.7316 2.26147 21.2802C2 20.768 2 20.0964 2 18.7518Z" stroke="currentColor" stroke-width="1.5" stroke-linecap="round" stroke-linejoin="round"/>
</svg>
