<svg width="24" height="24" viewBox="0 0 24 24" fill="none" xmlns="http://www.w3.org/2000/svg">
<path d="M7.39706 9.39543V6.99674C7.39706 3.68534 8.88306 1 12.1945 1C14.7059 1 16.1679 2.54476 16.728 4.73477M12.1945 16.2917V15.692M16.9918 16.2917V15.692M7.39706 16.2917V15.692M2 18.7503V13.2333C2 11.8901 2 11.2184 2.26146 10.7063C2.49122 10.2546 2.85818 9.88717 3.30969 9.65689C3.82301 9.39663 4.49464 9.39663 5.83791 9.39663H18.551C19.8943 9.39663 20.5659 9.39663 21.0792 9.65689C21.5305 9.88686 21.8975 10.2538 22.1274 10.7051C22.3889 11.2184 22.3889 11.8901 22.3889 13.2333V18.7503C22.3889 20.0936 22.3889 20.7652 22.1274 21.2786C21.8975 21.7299 21.5305 22.0968 21.0792 22.3268C20.5659 22.5883 19.8943 22.5883 18.551 22.5883H5.83791C4.49464 22.5883 3.82301 22.5883 3.30969 22.3268C2.85836 22.0968 2.49143 21.7299 2.26146 21.2786C2 20.7664 2 20.0948 2 18.7503Z" stroke="currentColor" stroke-width="1.5" stroke-linecap="round" stroke-linejoin="round"/>
</svg>
