<svg width="24" height="24" viewBox="0 0 24 24" fill="none" xmlns="http://www.w3.org/2000/svg">
<path d="M24.0434 12.3021C24.0428 10.7099 22.0481 9.20179 18.9901 8.26548C19.6948 5.15105 19.3811 2.67295 17.9977 1.87911C17.6792 1.69301 17.3062 1.60514 16.9001 1.60435L16.9001 2.69657C17.1258 2.69658 17.3073 2.74119 17.4585 2.82362C18.125 3.20614 18.4148 4.66056 18.1899 6.53164C18.1299 7.01552 18.0465 7.49622 17.9402 7.97207C16.9158 7.72474 15.8761 7.54579 14.828 7.43642C14.2034 6.57573 13.5221 5.75766 12.7886 4.98765C14.3863 3.50455 15.8858 2.69158 16.9054 2.69155L16.9053 1.6001C15.5577 1.59934 13.7941 2.55913 12.0107 4.22383C10.2255 2.5686 8.46102 1.61783 7.11347 1.61706L7.11417 2.70947C8.12819 2.70954 9.63328 3.51826 11.2308 4.99261C10.5012 5.75981 9.82513 6.57623 9.20739 7.43611C8.15729 7.54325 7.11585 7.72288 6.09054 7.97369C5.98257 7.50478 5.89757 7.03088 5.83585 6.55367C5.60517 4.68305 5.88858 3.22826 6.55008 2.84125C6.69774 2.75347 6.88877 2.71437 7.11372 2.71419L7.11377 1.62198C6.7026 1.62224 6.32925 1.71001 6.00598 1.89665C4.62885 2.68919 4.32075 5.16269 5.03228 8.26808C1.98369 9.20685 -0.00050833 10.7097 9.7686e-08 12.2962C0.000601958 13.8883 1.99534 15.3965 5.05338 16.3328C4.34789 19.447 4.6624 21.9253 6.04495 22.719C6.36346 22.9051 6.7363 22.9937 7.14822 22.9937C8.49504 22.9942 10.2587 22.0344 12.0428 20.3699C13.8273 22.0249 15.5918 22.9757 16.9395 22.9757C17.3505 22.9762 17.7241 22.8877 18.0471 22.7018C19.4242 21.9093 19.7323 19.4357 19.0208 16.3304C22.0595 15.3954 24.0439 13.8886 24.0434 12.3021ZM17.6621 9.03408C17.4714 9.68881 17.2506 10.3343 17.0002 10.9687C16.5904 10.1726 16.1405 9.39769 15.6523 8.64712C16.3278 8.74506 16.9985 8.87416 17.6621 9.03408ZM15.4182 14.2495C15.0513 14.8894 14.6574 15.5135 14.2376 16.12C12.7668 16.2491 11.2877 16.2502 9.81688 16.1236C8.97303 14.9193 8.23483 13.6443 7.61043 12.3129C7.91516 11.657 8.25788 11.0008 8.62538 10.3601C8.99187 9.7198 9.38561 9.09536 9.80559 8.48875C11.2762 8.35962 12.7553 8.3584 14.2262 8.48509C14.6468 9.08905 15.0424 9.71006 15.4122 10.3465C15.7802 10.9812 16.1207 11.6316 16.4327 12.2957C16.1208 12.96 15.7825 13.6116 15.4185 14.2487L15.4182 14.2495ZM17.001 13.6128C17.2586 14.2513 17.4846 14.902 17.678 15.5627C17.0114 15.7241 16.3376 15.8545 15.6589 15.9535C16.145 15.1961 16.593 14.4149 17.001 13.6128ZM12.0327 18.8373C11.5518 18.3386 11.0968 17.8156 10.6696 17.2702C11.1186 17.2918 11.5681 17.3034 12.0177 17.3049C12.4721 17.3061 12.9264 17.2947 13.3802 17.271C12.9599 17.8171 12.5095 18.3398 12.0327 18.8373ZM8.38612 15.9522C7.68976 15.8495 7.0186 15.722 6.37626 15.5652C6.56684 14.9105 6.78744 14.2649 7.03735 13.6305C7.2385 14.0229 7.44968 14.414 7.67992 14.8062C7.91016 15.1984 8.14568 15.5799 8.38612 15.9522ZM12.0058 5.76129C12.4618 6.23169 12.917 6.7559 13.368 7.32894C12.9275 7.30926 12.476 7.29467 12.0206 7.29438C11.5662 7.29338 11.1119 7.30469 10.6582 7.32831C11.0993 6.75573 11.555 6.23135 12.0051 5.7611L12.0058 5.76129ZM8.37965 8.64509C7.89361 9.40088 7.44556 10.1804 7.03716 10.9809C6.77989 10.3427 6.55415 9.69223 6.36076 9.0319C7.02777 8.87416 7.70129 8.74538 8.37942 8.64587L8.37965 8.64509ZM3.94543 14.776C2.21067 14.0364 1.08813 13.0665 1.08709 12.2973C1.08756 11.5284 2.20958 10.5538 3.94419 9.82C4.36595 9.63882 4.82611 9.4768 5.30195 9.32536C5.60191 10.3435 5.97043 11.3401 6.40499 12.3083C5.97553 13.2717 5.61236 14.2632 5.318 15.2761C4.83234 15.1242 4.37147 14.9579 3.94543 14.776ZM6.58399 21.7752C5.91675 21.3925 5.62769 19.9383 5.85257 18.0672C5.9124 17.5835 5.99567 17.1031 6.1021 16.6275C7.12655 16.8746 8.16632 17.0533 9.21447 17.1625C9.83899 18.0231 10.5203 18.8412 11.2539 19.6112C9.65602 21.095 8.15674 21.9073 7.13704 21.9073C6.91671 21.9023 6.73104 21.8581 6.58399 21.7752ZM18.2074 18.0454C18.438 19.916 18.1546 21.3708 17.4931 21.7578C17.3455 21.8456 17.1544 21.8847 16.9295 21.8848C15.9147 21.8846 14.4105 21.076 12.8122 19.6015C13.5418 18.8344 14.2179 18.0179 14.8356 17.158C15.8857 17.0509 16.9271 16.8713 17.9524 16.6205C18.0649 17.1149 18.1537 17.5901 18.2074 18.0454ZM20.0941 14.7793C19.6724 14.9606 19.2124 15.1218 18.7364 15.274C18.4364 14.2559 18.0679 13.2593 17.6333 12.291C18.0629 11.3277 18.4261 10.3361 18.7204 9.32333C19.206 9.47524 19.6668 9.64139 20.0978 9.82296C21.8326 10.5627 22.9551 11.5325 22.9554 12.3016C22.9507 13.0709 21.8289 14.0447 20.0941 14.7793Z" fill="currentColor"/>
<path d="M12.757 14.4625C13.0409 14.3863 13.307 14.2551 13.5402 14.0761C13.7733 13.8971 13.969 13.674 14.1158 13.4194C14.2627 13.1649 14.3581 12.8839 14.3964 12.5924C14.4347 12.301 14.4153 12.0049 14.3391 11.721C14.263 11.4371 14.1317 11.171 13.9528 10.9379C13.7738 10.7047 13.5506 10.5091 13.2961 10.3622C13.0415 10.2153 12.7605 10.1199 12.4691 10.0816C12.1776 10.0433 11.8815 10.0627 11.5977 10.1389C11.0244 10.2927 10.5356 10.668 10.2389 11.1822C9.94235 11.6964 9.86207 12.3074 10.0159 12.8807C10.1698 13.4541 10.5451 13.9428 11.0593 14.2395C11.5734 14.5361 12.1837 14.6163 12.757 14.4625Z" fill="currentColor"/>
</svg>
