<svg width="24" height="24" viewBox="0 0 24 24" fill="none" xmlns="http://www.w3.org/2000/svg">
<path d="M5.96774 14.6214L9.37419 18.0268M5.96774 14.6214C5.96774 14.6214 7.97897 9.59568 10.8418 6.10803M5.96774 14.6214C-1.43987 12.7698 5.21548 6.10803 10.8418 6.10803M9.37419 18.0268C9.37419 18.0268 14.4015 16.0162 17.8903 13.1543M9.37419 18.0268C11.2265 25.4306 17.8903 18.7788 17.8903 13.1543M10.8418 6.10803C13.7373 2.58065 18.5106 1 23 1C23 5.48797 21.4188 10.2583 17.8903 13.1543M15.4774 8.3882L16.4809 7.38504M2.80116 18.4893C1.44994 19.6259 1 23 1 23C1 23 4.36671 22.5488 5.50077 21.1952C6.13948 20.4375 6.13097 19.274 5.41987 18.5702C5.0683 18.2398 4.6081 18.0493 4.12582 18.0344C3.64355 18.0195 3.17246 18.1813 2.80116 18.4893Z" stroke="currentColor" stroke-width="1.5" stroke-linecap="round" stroke-linejoin="round"/>
</svg>
