<svg width="24" height="24" viewBox="0 0 24 24" fill="none" xmlns="http://www.w3.org/2000/svg">
<path d="M21.1253 3.1755C18.8934 -0.0143169 14.4855 -0.959687 11.2987 1.06825L5.70183 4.63106C4.94643 5.10498 4.29826 5.73104 3.79869 6.46925C3.29911 7.20746 2.95912 8.0416 2.8004 8.91848C2.53276 10.3984 2.76687 11.9252 3.46567 13.2573C2.98674 13.983 2.66038 14.7984 2.50639 15.6539C2.34654 16.5502 2.36766 17.4692 2.56852 18.3572C2.76937 19.2451 3.14591 20.084 3.67597 20.8245C5.90784 24.0143 10.3158 24.9597 13.5026 22.9318L19.0995 19.3839C19.854 18.909 20.5015 18.2827 21.0009 17.5446C21.5004 16.8066 21.8409 15.973 22.0009 15.0966C22.2675 13.6171 22.0326 12.091 21.3335 10.7598C21.8121 10.0338 22.1392 9.21864 22.2948 8.3632C22.4543 7.467 22.4329 6.548 22.2321 5.66013C22.0312 4.77225 21.6549 3.93336 21.1253 3.19265" fill="black"/>
<path d="M10.7367 21.1329C9.85728 21.3613 8.92908 21.3142 8.07731 20.9979C7.22553 20.6817 6.49119 20.1115 5.97337 19.3644C5.65543 18.9192 5.42969 18.4149 5.30941 17.881C5.18913 17.3472 5.17676 16.7947 5.27302 16.256C5.30461 16.0808 5.34899 15.9081 5.4058 15.7393L5.51075 15.4178L5.79775 15.6322C6.45743 16.1142 7.19389 16.481 7.97592 16.7169L8.1901 16.7791L8.17082 16.9934C8.15021 17.2873 8.23278 17.5793 8.40427 17.8188C8.56052 18.0435 8.78183 18.2149 9.03839 18.3101C9.29495 18.4051 9.57445 18.4192 9.83925 18.3504C9.96034 18.3178 10.0759 18.2673 10.1819 18.2003L15.7591 14.6375C15.896 14.5513 16.0135 14.4373 16.1039 14.3029C16.1943 14.1685 16.2555 14.0167 16.2838 13.8572C16.3123 13.6947 16.3081 13.5281 16.2713 13.3672C16.2346 13.2063 16.1659 13.0544 16.0696 12.9204C15.9134 12.6957 15.6921 12.5242 15.4355 12.4292C15.179 12.3341 14.8995 12.32 14.6347 12.3888C14.5135 12.4209 14.3979 12.4716 14.2919 12.5389L12.1502 13.9001C11.7999 14.1224 11.4179 14.2901 11.0172 14.3974C10.1393 14.6245 9.21299 14.5769 8.36291 14.261C7.51284 13.9453 6.77983 13.3764 6.26251 12.631C5.94553 12.1854 5.72067 11.6809 5.60115 11.1471C5.48161 10.6133 5.46981 10.0611 5.56643 9.5227C5.66102 8.99422 5.86473 8.49134 6.16456 8.04614C6.46439 7.60099 6.85373 7.22335 7.30769 6.93738L12.9019 3.37456C13.2502 3.1527 13.63 2.98501 14.0285 2.87723C14.9076 2.64868 15.8355 2.69572 16.687 3.01201C17.5385 3.32829 18.2724 3.89856 18.7897 4.64577C19.1079 5.0908 19.3341 5.59507 19.4547 6.12889C19.5754 6.66272 19.5881 7.21531 19.4922 7.75412C19.4587 7.93036 19.4144 8.1043 19.3594 8.27502L19.2523 8.59662L18.9675 8.38222C18.3064 7.89652 17.5677 7.52682 16.7828 7.28894L16.5687 7.22678L16.5879 7.0124C16.6127 6.71703 16.5323 6.42241 16.3609 6.18065C16.2037 5.95976 15.983 5.79201 15.7282 5.69972C15.4734 5.60744 15.1966 5.59498 14.9345 5.66403C14.8133 5.6962 14.6977 5.7468 14.5918 5.81408L9.00396 9.37046C8.86749 9.45678 8.75039 9.57054 8.66007 9.70446C8.56975 9.83838 8.50818 9.98966 8.47923 10.1486C8.45123 10.3115 8.45575 10.4784 8.49251 10.6395C8.52927 10.8007 8.59755 10.9529 8.69341 11.0876C8.84894 11.3103 9.06846 11.4804 9.32283 11.5753C9.57721 11.6703 9.85443 11.6856 10.1177 11.6192C10.2386 11.5861 10.354 11.5357 10.4603 11.4692L12.6021 10.1101C12.9522 9.88526 13.3351 9.71678 13.7372 9.61054C14.6161 9.3815 15.544 9.42806 16.3955 9.74398C17.2471 10.0599 17.9811 10.6299 18.4984 11.3769C18.8165 11.8221 19.0425 12.3264 19.1631 12.8601C19.2838 13.394 19.2966 13.9465 19.2009 14.4853C19.1063 15.0137 18.9026 15.5167 18.6027 15.9618C18.3029 16.407 17.9136 16.7846 17.4596 17.0706L11.8718 20.6334C11.5208 20.8565 11.1381 21.0249 10.7367 21.1329Z" fill="white"/>
</svg>
