<svg width="24" height="24" viewBox="0 0 24 24" fill="none" xmlns="http://www.w3.org/2000/svg">
<path d="M5.27772 23.0006H19.333C21.3582 23.0006 22.9996 21.292 22.9996 19.1837C22.9996 17.585 23.1585 15.9693 21.4144 15.2079M21.4144 15.2079C21.0332 15.9466 20.4152 16.5362 19.6594 16.8823L7.08657 22.59M21.4144 15.2079C21.6806 14.6976 21.8319 14.1354 21.8579 13.5605C21.8838 12.9856 21.7838 12.412 21.5648 11.8798L20.9231 10.3239C20.07 8.25231 17.6904 7.39677 15.7923 8.47964L12.1098 10.5794M5.27772 18.1118L4.98194 19.1556M9.4112 19.752C8.8001 22.0888 6.45347 23.476 4.17162 22.8503C1.88977 22.2233 0.535575 19.8217 1.14668 17.4848L4.88661 3.77539C5.43905 1.74531 7.47034 0.56833 9.42098 1.14765L10.851 1.57298C12.8248 2.15964 13.9505 4.31804 13.3504 6.36156L9.4112 19.752Z" stroke="currentColor" stroke-width="1.5" stroke-linecap="round" stroke-linejoin="round"/>
</svg>
