<svg width="24" height="24" viewBox="0 0 24 24" fill="none" xmlns="http://www.w3.org/2000/svg">
<path d="M7.11133 8.33325L10.778 11.9999L7.11133 15.6666M13.2224 15.6666H16.8891" stroke="currentColor" stroke-width="1.5" stroke-linecap="round" stroke-linejoin="round"/>
<path d="M1 8.82222C1 6.08444 1 4.71556 1.53289 3.66933C2.0016 2.74947 2.74947 2.0016 3.66933 1.53289C4.71556 1 6.08444 1 8.82222 1H15.1778C17.9156 1 19.2844 1 20.3307 1.53289C21.2505 2.0016 21.9984 2.74947 22.4671 3.66933C23 4.71556 23 6.08444 23 8.82222V15.1778C23 17.9156 23 19.2844 22.4671 20.3307C21.9984 21.2505 21.2505 21.9984 20.3307 22.4671C19.2844 23 17.9156 23 15.1778 23H8.82222C6.08444 23 4.71556 23 3.66933 22.4671C2.74947 21.9984 2.0016 21.2505 1.53289 20.3307C1 19.2844 1 17.9156 1 15.1778V8.82222Z" stroke="currentColor" stroke-width="1.5" stroke-linecap="round" stroke-linejoin="round"/>
</svg>
